<svg width="121" height="32" viewBox="0 0 121 32" fill="none" xmlns="http://www.w3.org/2000/svg">
<g clip-path="url(#clip0_3703_19778)">
<path d="M101.414 28.449C103.43 30.3778 106.079 31.3423 109.368 31.3423C112.656 31.3423 115.311 30.5041 117.327 28.8378C119.308 27.2018 120.298 25.0104 120.298 22.2433C120.298 19.9358 119.132 18.0725 116.804 16.6638C115.014 15.5428 112.535 14.7046 109.373 14.1643C107.517 13.8462 106.019 13.2453 104.868 12.3819C103.495 11.3872 102.806 10.1551 102.806 8.68073C102.806 7.20631 103.4 6.14595 104.581 5.30775C105.798 4.47461 107.392 4.06056 109.373 4.06056C111.037 4.06056 112.475 4.60589 113.687 5.69655C114.873 6.81751 115.622 8.29698 115.944 10.1198H119.584C119.584 7.30225 118.654 5.04014 116.809 3.3385C114.954 1.63687 112.475 0.788574 109.378 0.788574C106.281 0.788574 103.807 1.50558 101.952 2.9497C100.096 4.39382 99.1713 6.30248 99.1713 8.68073C99.1713 11.059 100.222 12.9929 102.334 14.5986C104.189 15.9771 106.537 16.9263 109.378 17.4414C111.52 17.8251 113.164 18.3351 114.315 18.9814C115.879 19.8802 116.663 21.0769 116.663 22.5917C116.663 24.258 115.989 25.5961 114.647 26.5858C113.34 27.5805 111.58 28.0753 109.378 28.0753C107.176 28.0753 105.416 27.3987 104.109 26.0556C102.771 24.7377 102.092 22.9755 102.092 20.7588H98.4573C98.4573 23.9702 99.4478 26.5403 101.429 28.4591M95.1541 1.36925H91.5089V30.6303H95.1541V1.36925ZM62.8555 30.6303V8.68578L71.5737 30.6303H74.1178L82.8862 8.68578V30.6303H86.5264V1.36925H81.9712L72.8658 24.4196L63.7655 1.36925H59.2053V30.6303H62.8505H62.8555ZM56.0478 30.6303V27.1614H39.6572V17.2444H54.2278V13.7806H39.6572V4.82806H56.0478V1.36925H36.0171V30.6303H56.0478Z" fill="#212121"/>
<path d="M28.7872 1.50586H15.6797V14.6746H28.7872V1.50586Z" fill="#00A7D8"/>
<path d="M28.7872 17.3306H15.6797V30.4943H28.7872V17.3306Z" fill="#005F87"/>
<path d="M13.03 17.3306H-0.0825195V30.4943H13.03V17.3306Z" fill="#003F57"/>
</g>
<defs>
<clipPath id="clip0_3703_19778">
<rect width="121" height="32" fill="white"/>
</clipPath>
</defs>
</svg>
